<?xml version="1.0" standalone="no"?>
<!DOCTYPE svg PUBLIC "-//W3C//DTD SVG 20010904//EN"
 "http://www.w3.org/TR/2001/REC-SVG-20010904/DTD/svg10.dtd">
<svg version="1.0" xmlns="http://www.w3.org/2000/svg"
 width="512.000000pt" height="512.000000pt" viewBox="0 0 512.000000 512.000000"
 preserveAspectRatio="xMidYMid meet">
<metadata>
Created by potrace 1.16, written by Peter Selinger 2001-2019
</metadata>
<g transform="translate(0.000000,512.000000) scale(0.100000,-0.100000)"
fill="#000000" stroke="none">
<path d="M3064 4610 c-130 -34 -244 -106 -344 -217 -56 -63 -131 -206 -151
-288 -7 -27 -20 -61 -31 -74 -10 -13 -18 -39 -18 -57 0 -29 -6 -38 -40 -59
-51 -32 -66 -67 -50 -118 14 -46 60 -100 100 -117 34 -14 35 -17 16 -39 -64
-75 -37 -300 47 -384 19 -19 22 -33 22 -107 0 -117 -10 -160 -37 -160 -13 0
-40 -20 -67 -48 l-46 -49 0 140 0 141 -95 32 c-52 18 -211 75 -352 128 -142
53 -262 96 -266 96 -5 0 -21 9 -36 21 -26 21 -30 21 -272 11 -236 -10 -246
-10 -265 9 -30 30 -64 24 -95 -16 -24 -31 -30 -35 -60 -29 -30 5 -35 2 -61
-34 -23 -34 -35 -42 -72 -48 -26 -4 -54 -17 -68 -30 -13 -13 -32 -24 -41 -24
-10 0 -28 -7 -40 -16 -20 -14 -22 -23 -22 -123 0 -105 -1 -109 -23 -114 -100
-22 -274 -71 -284 -79 -8 -7 -13 -37 -13 -83 0 -52 -4 -76 -15 -85 -15 -13
-20 -74 -9 -104 9 -24 44 -20 44 5 0 11 -4 18 -9 14 -5 -3 -12 -1 -16 4 -3 5
1 14 9 18 12 6 16 33 18 113 l3 105 63 11 c34 6 62 8 62 4 0 -4 47 -5 105 -2
92 4 105 3 105 -12 0 -14 -17 -16 -134 -16 -73 0 -148 -3 -165 -6 l-31 -6 0
-123 0 -123 153 -7 c83 -4 198 -5 255 -3 83 2 102 0 102 -11 0 -12 -35 -13
-227 -7 -126 3 -259 9 -297 13 l-69 6 5 -47 c3 -27 12 -54 19 -61 16 -16 153
-32 365 -41 l151 -7 34 -46 c31 -42 41 -48 103 -63 38 -10 71 -19 73 -22 2 -2
-41 -9 -95 -16 -78 -10 -135 -10 -263 -1 -184 12 -312 13 -349 1 -18 -6 -8 -8
39 -9 79 -1 71 -12 -26 -37 -40 -10 -73 -21 -73 -26 0 -4 83 -8 183 -8 101 0
186 -3 190 -6 3 -3 -8 -33 -25 -66 -16 -32 -33 -80 -37 -106 l-6 -47 -210 -5
c-164 -4 -197 -7 -150 -13 132 -17 194 -29 285 -53 52 -14 102 -28 110 -31 24
-11 -100 -20 -285 -23 -112 -1 -156 -5 -130 -10 60 -11 549 -20 635 -11 41 5
65 9 53 10 -12 0 -24 5 -27 10 -5 8 92 21 169 21 l40 0 -55 35 c-30 19 -59 36
-65 38 -5 2 4 16 20 30 26 22 39 26 93 27 40 0 61 4 57 10 -3 6 -28 10 -56 10
-47 0 -49 1 -49 28 0 17 -16 51 -38 83 l-38 54 -82 2 c-45 1 -89 6 -98 11 -18
10 21 18 491 102 127 23 239 46 250 51 13 6 -46 8 -163 5 -160 -4 -183 -2
-178 11 3 8 6 17 6 19 0 2 15 4 34 4 48 0 366 53 570 95 167 34 214 39 139 15
-142 -47 -376 -199 -477 -311 -125 -139 -170 -339 -146 -649 30 -393 133 -847
240 -1061 53 -105 77 -122 44 -31 -40 108 -48 98 196 276 38 28 55 45 40 41
-63 -19 -129 -47 -169 -74 -25 -17 -48 -28 -53 -25 -30 19 -149 504 -147 604
l0 35 30 -55 30 -55 -6 40 c-10 71 -65 277 -102 384 -33 95 -35 111 -29 179
12 148 60 276 128 344 38 38 43 40 82 34 98 -16 199 -99 291 -241 94 -144 180
-338 173 -389 -2 -17 -16 -6 -71 62 -38 45 -71 82 -73 82 -3 0 11 -28 31 -62
87 -150 153 -320 171 -442 8 -50 12 -53 -104 99 -84 110 -180 224 -169 200 10
-22 117 -195 175 -284 68 -103 116 -197 127 -251 l7 -34 -58 51 c-66 57 -196
190 -237 241 -15 19 -27 31 -27 27 0 -22 59 -113 120 -183 39 -46 70 -85 68
-87 -2 -2 -37 5 -78 15 -111 29 -125 23 -35 -14 44 -18 118 -52 163 -76 l84
-43 -104 -51 c-100 -49 -300 -177 -363 -232 l-30 -26 30 7 c17 3 105 46 196
95 212 113 273 140 318 140 85 0 688 83 1016 140 l230 40 37 -40 c45 -51 70
-122 66 -190 l-3 -52 -118 -49 c-65 -27 -117 -45 -115 -41 17 32 36 82 42 107
l6 30 -22 -30 c-96 -126 -108 -136 -223 -181 -156 -62 -1054 -354 -1125 -367
-19 -3 -16 -5 11 -6 47 -1 126 13 290 54 142 36 703 195 752 214 39 15 50 14
43 -4 -3 -8 -2 -15 3 -15 4 0 149 41 322 92 192 56 338 93 375 96 33 2 132 -4
219 -12 87 -9 177 -16 199 -16 l41 1 -29 15 c-38 21 -182 50 -290 59 -48 4
-88 11 -91 15 -2 4 13 15 35 25 50 22 66 57 50 113 -6 23 -22 54 -36 71 l-25
30 45 6 c98 15 246 -30 355 -108 73 -52 79 -53 31 -3 -56 58 -155 109 -246
126 l-69 13 69 18 c39 10 110 23 159 30 106 14 97 29 -18 29 -85 0 -205 -28
-301 -69 -52 -22 -52 -22 -89 -3 l-37 19 93 73 c52 40 111 92 133 114 41 43
96 123 96 139 0 6 -42 -30 -92 -79 -82 -79 -173 -142 -186 -129 -9 8 32 60 82
105 67 60 202 244 221 300 l15 45 -23 -30 c-39 -52 -78 -94 -117 -125 l-38
-30 43 65 c59 90 87 181 83 270 -4 77 -4 76 -41 -42 -25 -80 -73 -170 -84
-160 -3 3 1 52 9 109 20 157 16 415 -9 505 -18 68 -18 72 -2 57 57 -51 167
-334 176 -451 6 -74 15 -91 28 -51 3 13 8 19 10 13 19 -46 115 -374 150 -510
52 -204 66 -297 67 -458 1 -147 -11 -181 -70 -196 -74 -19 -76 -20 -25 -16 93
7 115 33 134 157 31 200 -34 505 -226 1063 -112 326 -164 433 -244 507 -44 41
-79 63 -133 83 -40 15 -80 34 -88 41 -9 7 -83 41 -165 75 -83 33 -151 64 -153
68 -1 4 -27 50 -56 102 l-54 94 33 28 c40 33 100 127 125 199 l18 51 7 -64 c6
-47 4 -64 -5 -67 -8 -3 2 -18 26 -38 l39 -33 -42 1 c-48 1 -70 -13 -90 -60
-18 -43 -2 -103 34 -131 34 -27 149 -28 248 -1 l70 18 17 -21 c17 -21 16 -22
-10 -28 -15 -4 -49 -7 -75 -8 -54 -1 -137 -20 -137 -31 0 -4 44 -15 98 -25 74
-14 166 -19 387 -22 253 -5 312 -2 460 16 94 12 176 21 183 21 6 0 12 4 12 9
0 5 -24 13 -54 16 l-54 7 24 42 c13 22 24 53 24 69 0 20 5 27 18 27 31 0 56
35 47 67 -5 15 -7 58 -6 95 l3 67 -48 31 c-26 16 -44 30 -38 31 5 0 0 4 -11 9
l-20 9 20 0 c20 1 45 40 45 70 0 9 -5 32 -10 52 -8 29 -16 38 -40 43 -17 3
-30 12 -30 21 0 28 -45 44 -170 60 -149 19 -150 19 -150 44 0 46 -8 51 -92 51
l-79 0 -14 -34 c-16 -39 -5 -35 -235 -66 -259 -34 -280 -39 -280 -64 0 -12
-10 -27 -21 -35 -20 -12 -21 -11 -14 6 24 57 36 118 41 207 6 83 12 111 35
157 21 42 27 66 23 90 -5 30 -2 36 23 50 15 9 53 22 83 28 131 29 141 45 70
113 -48 46 -50 50 -50 102 0 33 -5 58 -14 65 -7 6 -15 41 -19 84 -8 106 -40
196 -102 288 -30 43 -58 92 -61 107 -13 50 -36 72 -118 112 -85 43 -191 70
-266 69 -25 0 -77 -9 -116 -19z m194 -30 c89 -15 188 -57 232 -99 32 -31 38
-44 45 -96 3 -33 15 -109 25 -170 10 -60 22 -147 25 -192 6 -76 10 -85 37
-108 16 -14 33 -25 37 -25 4 0 43 -34 87 -76 58 -57 73 -75 54 -71 -388 100
-692 135 -922 106 l-88 -12 -73 38 -74 38 -59 -27 c-32 -15 -69 -37 -81 -48
-24 -22 -39 -19 -30 5 8 20 140 87 173 87 15 0 49 -14 76 -31 54 -35 40 -34
323 -24 189 7 209 6 355 -19 86 -14 196 -37 245 -51 49 -13 91 -22 93 -20 9 8
-62 36 -150 59 -208 54 -275 61 -559 61 l-266 0 -41 29 c-36 25 -49 28 -92 24
-46 -5 -50 -3 -50 17 0 48 81 80 140 55 22 -9 31 -21 36 -45 6 -32 7 -32 42
-24 20 4 76 11 124 15 83 6 87 8 83 28 -3 11 -9 39 -13 61 l-8 40 -84 -1 c-47
0 -127 -9 -178 -19 -51 -9 -95 -15 -98 -12 -10 10 20 104 54 172 48 94 168
215 237 238 54 19 111 22 147 8 34 -13 88 -70 108 -116 62 -138 14 -245 -123
-270 -37 -7 -37 -7 -37 -58 0 -47 1 -49 18 -35 9 8 42 18 74 22 77 8 81 11
109 59 20 36 24 59 27 154 5 133 -14 227 -59 298 -28 45 -28 45 -6 45 12 0 50
-5 85 -10z m-148 -30 c11 -6 24 -19 30 -30 11 -20 11 -20 -22 0 -18 11 -44 20
-58 20 -20 0 -22 2 -10 10 19 13 37 12 60 0z m519 -295 c43 -87 78 -255 53
-255 -4 0 -22 15 -39 33 -27 28 -33 45 -47 137 -9 58 -19 120 -22 139 -5 30
-3 33 9 23 8 -7 29 -41 46 -77z m-429 -124 c-15 -57 -50 -81 -116 -81 -59 0
-71 14 -26 31 70 26 116 54 131 80 20 36 25 22 11 -30z m-236 -67 c3 -9 6 -27
6 -40 0 -24 -2 -24 -86 -24 l-86 0 6 32 c8 42 19 48 92 48 47 0 63 -4 68 -16z
m726 -94 c6 0 10 -18 10 -40 0 -39 0 -40 -27 -28 -43 18 -51 29 -59 83 l-7 50
37 -33 c20 -17 41 -32 46 -32z m-410 -191 c92 -11 213 -34 273 -51 35 -11 37
-13 37 -52 l0 -41 -77 3 -78 4 -18 -32 c-11 -17 -30 -36 -44 -41 -23 -8 -25
-13 -19 -47 4 -20 13 -85 20 -144 8 -59 17 -112 21 -118 10 -16 -34 -60 -59
-59 -21 0 -21 0 -1 9 12 4 26 14 32 22 10 11 4 14 -30 15 -23 1 -69 5 -102 10
-69 9 -82 29 -44 69 22 23 22 24 3 24 -27 0 -189 -166 -209 -213 -8 -20 -16
-58 -16 -84 l-1 -48 -9 50 c-5 28 -11 64 -14 82 -4 24 -10 31 -22 26 -13 -5
-15 3 -11 62 l4 67 -23 -26 c-23 -27 -28 -57 -23 -126 3 -56 -10 -29 -21 41
-5 37 -23 90 -42 124 -30 56 -32 66 -31 160 1 139 20 199 83 258 34 32 60 48
87 52 22 3 46 8 54 10 36 7 203 4 280 -6z m-649 -159 c31 -17 52 -68 44 -109
-3 -20 -7 -79 -8 -131 l-2 -95 -27 -3 c-34 -4 -54 25 -79 116 -44 155 -8 264
72 222z m949 -73 c0 -1 -7 -24 -16 -52 -9 -27 -20 -93 -24 -145 -5 -66 -15
-113 -33 -155 -14 -33 -31 -89 -37 -125 -14 -76 -35 -120 -24 -50 11 71 6 128
-15 196 -12 34 -23 88 -26 120 -3 33 -8 80 -11 105 l-4 46 45 -14 c47 -16 95
-11 95 9 0 6 -10 23 -22 37 l-23 25 28 -18 c32 -20 47 -15 27 9 -7 8 -29 16
-49 17 -35 1 -34 1 9 7 36 6 80 -1 80 -12z m-90 -67 c0 -13 -20 -13 -40 0 -12
8 -9 10 13 10 15 0 27 -4 27 -10z m-2320 -45 c0 -10 -11 -15 -32 -15 -29 0
-30 -1 -13 -13 12 -10 14 -16 7 -21 -31 -19 -45 40 -16 68 18 18 54 5 54 -19z
m535 6 c3 -11 16 -23 28 -26 12 -4 164 -58 337 -120 173 -62 329 -117 345
-123 17 -6 23 -11 15 -11 -18 -1 -185 55 -488 163 -117 42 -221 76 -230 76
-24 0 -38 12 -46 38 -6 18 -4 22 13 22 11 0 22 -9 26 -19z m-77 -108 c0 -60
-3 -93 -5 -75 -3 19 -13 38 -26 46 -24 16 -259 76 -295 76 -14 0 -26 8 -32 23
-7 18 -9 19 -9 4 -1 -25 -64 -20 -69 5 -4 18 11 20 331 26 l107 2 -2 -107z
m-610 55 c-3 -7 -15 -15 -28 -16 -21 -3 -22 -2 -11 12 16 19 44 21 39 4z m57
2 c3 -6 -1 -13 -10 -16 -19 -8 -30 0 -20 15 8 14 22 14 30 1z m280 -40 c25 -7
21 -8 -20 -4 -27 3 -77 9 -110 14 -58 9 -57 9 20 4 44 -2 94 -8 110 -14z m357
-287 c-2 -227 -6 -309 -15 -315 -7 -4 -55 -8 -109 -8 -91 0 -96 1 -91 20 4 15
14 20 38 20 18 0 53 3 79 6 l46 7 0 288 0 289 28 0 27 0 -3 -307z m480 150
l238 -78 0 -135 c0 -117 -3 -139 -20 -165 -12 -18 -17 -38 -14 -52 10 -38 -14
-40 -433 -35 l-223 2 0 309 0 310 108 -39 c59 -22 214 -74 344 -117z m-884
123 c161 -20 160 -28 -3 -30 l-60 -1 -6 -50 c-3 -28 -10 -95 -14 -148 l-7 -97
-28 0 c-19 0 -29 6 -33 20 -4 15 0 20 13 20 11 0 22 5 25 11 6 9 34 219 35
257 0 22 -227 14 -365 -14 -22 -4 -27 -3 -19 5 14 16 172 39 269 40 44 0 131
-6 193 -13z m210 -23 c25 -4 32 -10 32 -29 0 -31 -13 -30 -34 1 -9 14 -24 25
-34 25 -9 0 -24 5 -32 11 -12 8 -9 9 10 4 14 -3 40 -8 58 -12z m2682 8 c0 -6
-15 -11 -32 -13 l-33 -3 -6 -115 c-10 -188 -12 -191 -20 -40 -4 80 -5 153 -3
163 4 13 16 17 50 17 24 0 44 -4 44 -9z m50 -26 c0 -14 -4 -25 -9 -25 -4 0 -6
11 -3 25 2 14 6 25 8 25 2 0 4 -11 4 -25z m-2785 -107 c1 -56 1 -85 -2 -63
-17 161 -18 184 -10 176 5 -5 10 -56 12 -113z m-25 -4 c0 -105 0 -106 -22
-100 -13 3 -26 6 -30 6 -5 0 -8 45 -8 100 l0 100 30 0 30 0 0 -106z m65 44 c3
-35 5 -142 3 -238 -3 -155 -5 -175 -20 -178 -15 -3 -16 1 -7 30 5 20 7 115 3
241 -5 145 -4 207 4 207 6 0 13 -28 17 -62z m-672 26 c-3 -8 -12 -13 -20 -10
-8 3 -26 6 -41 6 -34 0 -17 17 23 22 38 5 46 1 38 -18z m496 0 c29 -6 31 -9
31 -50 0 -23 -4 -45 -10 -49 -5 -3 -7 -12 -3 -20 4 -11 -3 -15 -25 -15 -26 0
-30 4 -36 38 -9 53 -7 102 3 102 5 0 23 -3 40 -6z m1809 -30 c-13 -6 -34 -15
-48 -18 -23 -6 -22 -4 9 23 27 24 38 28 49 19 11 -10 10 -14 -10 -24z m-459
-224 c8 -14 39 -61 70 -105 31 -44 88 -143 128 -219 l71 -140 7 56 c4 31 16
70 26 87 l19 31 115 -2 c98 -3 114 -5 109 -18 -22 -54 -45 -129 -54 -178 -9
-49 -8 -59 6 -69 39 -29 -65 -44 -152 -22 -38 10 -59 27 -139 113 -52 55 -133
151 -180 211 -96 123 -89 96 -65 255 5 36 10 108 11 160 l2 95 7 -115 c3 -65
12 -126 19 -140z m1796 221 l80 -10 -90 5 c-49 2 -109 7 -132 10 -39 6 -43 4
-53 -20 -12 -33 -40 -35 -40 -1 0 34 22 42 93 33 34 -4 98 -12 142 -17z
m-3715 -55 c0 -83 -7 -116 -21 -94 -10 15 -12 112 -3 146 13 45 24 20 24 -52z
m20 -84 c-9 -13 -10 -6 -6 32 3 27 7 67 8 90 1 23 4 8 5 -32 2 -42 -1 -79 -7
-90z m120 151 l33 -6 -7 -60 c-3 -33 -7 -61 -9 -62 -1 -1 -23 -5 -48 -8 l-46
-6 15 74 c8 41 18 75 22 75 4 0 22 -3 40 -7z m3158 -90 c1 -51 0 -93 -2 -93
-3 0 -61 9 -128 19 -68 11 -144 22 -170 26 l-47 6 -19 -45 c-21 -47 -61 -76
-107 -76 -23 0 -25 3 -23 43 1 36 2 38 5 10 4 -27 9 -33 28 -33 57 0 114 91
96 155 -7 27 -8 23 -14 -30 -6 -63 -29 -95 -68 -95 -29 0 -26 78 3 115 l22 28
-30 -7 c-19 -4 -24 -3 -14 3 8 5 36 12 62 15 45 7 47 6 50 -21 l3 -28 70 4
c39 1 72 5 74 7 2 2 0 20 -6 38 l-11 35 57 6 c31 3 63 8 71 10 8 2 33 2 55 2
l40 -2 3 -92z m-2441 47 c8 -18 8 -42 1 -85 -5 -33 -7 -78 -4 -100 l6 -40 -35
60 c-39 67 -55 114 -55 163 0 32 1 33 37 30 29 -2 41 -9 50 -28z m-587 9 c49
-11 50 -11 50 -49 l0 -38 45 6 c37 4 45 2 45 -12 0 -15 -11 -16 -102 -10 -57
4 -104 8 -106 9 -4 3 10 105 14 105 2 0 26 -5 54 -11z m3495 -8 c17 -5 20 -11
14 -31 -7 -24 -7 -24 -8 -2 -1 14 -7 22 -18 22 -10 0 -35 3 -55 6 l-38 7 0
-72 0 -71 -50 0 -50 0 0 75 c0 65 -2 74 -17 68 -11 -4 -14 -3 -9 6 6 9 33 11
109 5 56 -4 111 -10 122 -13z m-1106 -35 c12 -18 21 -42 21 -52 0 -14 -5 -11
-19 12 -11 18 -24 35 -30 38 -13 9 -15 36 -2 36 5 0 19 -15 30 -34z m768 -3
c-3 -10 -5 -4 -5 12 0 17 2 24 5 18 2 -7 2 -21 0 -30z m113 -98 c0 -96 -3
-115 -15 -115 -12 0 -15 18 -15 99 0 95 -1 100 -22 103 -41 6 -32 28 11 28
l41 0 0 -115z m204 99 c10 -10 16 -33 16 -65 0 -48 -1 -49 -30 -49 -36 0 -50
23 -50 84 0 42 2 46 24 46 14 0 32 -7 40 -16z m95 -55 c1 -34 4 -66 7 -73 4
-6 -1 -4 -10 5 -17 15 -35 74 -36 112 0 10 7 17 19 17 16 0 19 -9 20 -61z
m-1280 24 c9 -8 27 -23 41 -33 l25 -20 -40 16 c-26 11 -74 17 -142 18 -105 1
-107 11 -5 22 32 4 64 10 72 15 15 8 23 5 49 -18z m1328 -50 c-2 -16 -4 -5 -4
22 0 28 2 40 4 28 2 -13 2 -35 0 -50z m-100 25 c-3 -7 -5 -2 -5 12 0 14 2 19
5 13 2 -7 2 -19 0 -25z m-317 -83 c0 -57 -4 -95 -10 -95 -5 0 -10 15 -10 34 0
43 12 156 16 156 2 0 4 -43 4 -95z m-1010 54 c58 -6 122 -16 143 -21 39 -9 39
-10 31 -46 -5 -20 -8 -63 -6 -94 1 -31 -3 -60 -8 -63 -6 -3 -10 2 -10 13 0 10
-8 26 -18 35 -18 16 -18 15 -14 -13 2 -17 -1 -44 -8 -60 -10 -25 -14 -27 -26
-15 -8 7 -14 22 -15 32 0 12 -5 9 -14 -12 -13 -30 -13 -30 -20 33 -4 34 -11
62 -16 62 -5 0 -16 -11 -25 -25 -13 -20 -25 -25 -55 -25 -22 0 -39 5 -39 11 0
6 -16 29 -35 50 -29 32 -35 47 -35 83 0 64 8 79 39 73 14 -3 73 -11 131 -18z
m-1790 -9 c0 -5 -11 -10 -24 -10 -14 0 -28 5 -31 10 -4 6 7 10 24 10 17 0 31
-4 31 -10z m40 -115 c-1 -136 0 -135 -133 -135 l-106 0 -21 30 c-12 17 -26 27
-32 24 -6 -4 -8 -2 -4 4 3 6 2 13 -4 17 -5 3 -10 31 -10 61 l0 54 35 0 35 0 0
-90 c0 -53 4 -90 10 -90 6 0 10 43 10 110 l0 110 100 0 c89 0 100 2 100 18 0
14 2 15 10 2 5 -8 10 -60 10 -115z m3087 103 c-3 -8 -6 -5 -6 6 -1 11 2 17 5
13 3 -3 4 -12 1 -19z m-3695 -10 c-88 -21 -108 -37 -25 -20 75 16 292 36 300
28 4 -4 10 -48 13 -99 l5 -92 -45 23 c-35 18 -54 22 -88 17 -63 -9 -153 -42
-178 -66 -19 -18 -22 -18 -28 -4 -3 9 -6 36 -6 60 l0 43 53 7 c28 4 64 14 80
21 23 13 27 13 27 0 0 -20 18 -24 70 -17 38 5 46 10 48 30 2 13 0 27 -5 32 -8
8 -212 -32 -263 -52 -24 -9 -25 -12 -25 -112 -1 -60 -6 -110 -13 -122 -9 -16
-11 7 -12 118 l0 137 -39 0 c-22 0 -42 4 -45 9 -3 4 -29 6 -58 4 -52 -3 -51
-3 32 22 90 26 218 53 260 53 14 0 -12 -9 -58 -20z m2645 0 c-3 -8 -6 -5 -6 6
-1 11 2 17 5 13 3 -3 4 -12 1 -19z m1120 0 c-3 -8 -6 -5 -6 6 -1 11 2 17 5 13
3 -3 4 -12 1 -19z m-120 -18 c14 0 15 -2 4 -9 -11 -7 -10 -11 7 -20 32 -17 42
-13 43 17 0 20 2 22 7 10 4 -10 27 -30 52 -46 61 -38 80 -59 80 -86 l0 -22
-61 29 c-58 28 -164 45 -291 47 -26 0 -28 3 -28 45 l0 45 55 0 c31 0 55 4 55
10 0 6 13 4 30 -5 16 -8 37 -15 47 -15z m-473 -1 c4 -3 8 -27 11 -52 l5 -47
-73 6 c-99 9 -134 -4 -196 -72 -45 -49 -53 -54 -88 -52 l-38 1 35 4 c27 3 39
11 55 38 11 18 46 61 78 94 54 56 61 60 110 64 l52 3 -56 2 -56 2 -67 -70 -68
-70 -78 0 c-44 0 -81 3 -83 8 -2 4 -7 23 -11 43 l-6 37 97 16 c54 9 111 19
128 21 l29 5 -29 -30 c-22 -23 -38 -30 -66 -30 -49 0 -69 -8 -62 -26 3 -9 21
-14 52 -14 45 0 47 2 95 66 l50 66 87 -4 c48 -1 90 -6 93 -9z m146 -63 c0 -2
-11 -6 -25 -8 -14 -3 -25 -1 -25 3 0 5 11 9 25 9 14 0 25 -2 25 -4z m-1588
-158 c59 -91 182 -231 252 -286 71 -56 86 -81 86 -140 0 -29 13 -55 58 -117
58 -82 129 -211 120 -220 -2 -3 -27 30 -54 73 -27 42 -70 105 -96 140 -41 53
-48 70 -48 108 0 64 -21 108 -60 124 -44 18 -68 4 -143 -85 -32 -39 -61 -71
-65 -72 -4 -2 -51 86 -105 195 -66 134 -97 208 -97 231 0 25 15 58 52 115 l53
80 6 -46 c4 -26 22 -69 41 -100z m1588 122 c0 -5 -11 -10 -25 -10 -14 0 -25 5
-25 10 0 6 11 10 25 10 14 0 25 -4 25 -10z m165 -51 l60 -6 -77 -1 -76 -2 11
31 c11 29 12 29 17 7 5 -20 14 -24 65 -29z m-165 13 c0 -26 -6 -30 -35 -24
-38 7 -34 42 5 42 22 0 30 -5 30 -18z m-138 -24 c33 -26 76 -88 61 -88 -5 0
-16 13 -26 29 -44 75 -155 98 -222 47 -20 -15 -44 -44 -53 -64 -21 -46 -21
-47 -28 -39 -11 11 34 94 62 114 43 30 54 33 116 30 42 -2 64 -9 90 -29z
m-2932 1 c12 -7 10 -8 -7 -9 -12 0 -60 -14 -107 -31 -54 -19 -98 -29 -123 -27
l-38 3 45 27 c83 50 181 65 230 37z m3528 -8 c28 -14 42 -28 42 -41 0 -11 6
-29 12 -40 10 -16 10 -23 -4 -37 -22 -21 -33 -11 -17 15 10 17 10 25 -5 46
-29 45 -74 66 -140 66 -55 0 -61 -2 -95 -38 -20 -22 -44 -50 -54 -63 -17 -23
-17 -23 -2 16 19 48 37 68 78 90 42 21 129 14 185 -14z m-3898 9 c0 -6 -54
-10 -141 -10 -91 0 -138 4 -134 10 4 6 62 10 141 10 83 0 134 -4 134 -10z
m428 -36 c12 -8 22 -12 22 -7 0 11 23 -30 55 -97 33 -68 49 -134 40 -157 -5
-13 -13 4 -29 57 -12 42 -35 98 -52 125 -27 44 -35 50 -69 53 -51 4 -119 -23
-167 -66 -39 -36 -48 -29 -28 22 10 27 30 40 105 67 62 23 94 23 123 3z m2830
2 c47 -24 74 -62 79 -109 7 -55 -18 -112 -58 -132 -37 -20 -109 -19 -137 1
-28 19 -62 85 -62 119 0 96 98 163 178 121z m332 -60 c0 -52 -6 -43 -13 18 -3
30 -1 43 4 35 5 -8 9 -32 9 -53z m-3670 45 c82 -8 80 -8 -57 -9 -90 -1 -143 2
-143 8 0 11 75 12 200 1z m3501 -28 c5 -14 5 -31 0 -40 -6 -12 -10 -10 -15 13
-4 16 -9 37 -13 48 -8 28 16 10 28 -21z m40 0 c6 -17 5 -30 -4 -44 -13 -18
-14 -17 -15 11 0 17 -4 40 -7 51 -10 30 14 14 26 -18z m99 8 c5 -11 10 -24 10
-30 0 -12 -90 -15 -90 -3 0 4 -3 17 -6 30 -6 20 -3 22 34 22 31 0 44 -5 52
-19z m278 3 c49 -34 67 -116 37 -173 -17 -35 -75 -64 -109 -55 -13 3 -36 18
-51 34 -49 51 -44 159 9 195 27 20 86 19 114 -1z m-3098 -14 c0 -5 -8 -10 -19
-10 -10 0 -35 -7 -54 -15 -50 -21 -143 -20 -151 1 -12 31 -4 34 109 34 70 0
115 -4 115 -10z m2135 -20 c-4 -13 0 -31 9 -45 17 -26 9 -34 -12 -13 -19 19
-14 78 5 78 3 0 1 -9 -2 -20z m-3213 -12 c-7 -7 -12 -8 -12 -2 0 14 12 26 19
19 2 -3 -1 -11 -7 -17z m323 12 c25 -11 -197 -11 -240 0 -19 5 17 8 95 8 69 0
134 -3 145 -8z m155 -4 c0 -8 -4 -17 -10 -21 -5 -3 -7 -12 -3 -20 4 -11 -3
-15 -26 -15 -34 0 -37 6 -19 45 12 28 58 36 58 11z m34 -13 c-7 -29 -21 -50
-28 -42 -9 10 7 69 20 69 11 0 13 -7 8 -27z m2589 -3 c-9 -19 -12 -42 -9 -58
5 -20 4 -23 -4 -12 -14 22 -12 52 6 78 22 31 25 27 7 -8z m49 -19 c-3 -31 0
-42 19 -55 26 -18 9 -22 -22 -6 -19 11 -26 51 -13 84 11 29 20 17 16 -23z
m726 12 c-10 -2 -26 -2 -35 0 -10 3 -2 5 17 5 19 0 27 -2 18 -5z m-2088 -13
c10 -6 -67 -10 -227 -10 -156 0 -243 4 -243 10 0 13 450 13 470 0z m-1440 -10
c0 -12 -197 -13 -255 -1 -29 6 2 9 108 10 92 1 147 -3 147 -9z m396 -19 c41
-25 64 -77 64 -146 0 -52 -3 -60 -35 -92 -30 -30 -39 -34 -67 -28 -83 18 -109
57 -94 139 17 88 114 118 151 45 25 -47 14 -129 -16 -129 -6 0 -3 10 5 22 43
62 -16 159 -77 126 -35 -18 -46 -40 -47 -90 0 -57 24 -88 70 -88 94 0 132 129
58 197 -37 33 -61 36 -99 10 -47 -32 -64 -70 -62 -142 2 -55 1 -58 -12 -41
-19 26 -19 119 0 155 21 41 72 81 103 81 15 0 41 -9 58 -19z m1232 -23 c6 -23
10 -43 9 -44 -1 -1 -60 -23 -131 -49 l-129 -46 -43 23 c-24 13 -44 26 -44 29
0 5 297 123 321 128 4 0 11 -18 17 -41z m926 9 c14 -18 42 -69 61 -113 20 -43
51 -110 71 -149 25 -51 34 -82 33 -115 l-1 -45 -14 58 c-14 58 -42 117 -55
117 -13 0 -96 -106 -127 -160 -16 -30 -43 -93 -58 -140 -24 -76 -27 -103 -31
-265 -2 -99 0 -317 5 -485 5 -168 7 -310 5 -316 -2 -7 -18 -14 -34 -16 -25 -4
-28 -2 -23 14 3 11 10 220 14 466 9 492 12 518 77 691 19 51 53 128 75 170 37
70 40 81 35 136 -4 57 -51 175 -64 162 -7 -8 -43 -147 -43 -169 0 -10 -4 -18
-10 -18 -12 0 -12 3 1 60 20 86 40 150 49 150 5 0 20 -15 34 -33z m-1579 -3
c20 -8 37 -48 29 -69 -4 -8 -16 -15 -29 -15 -18 0 -24 7 -29 35 -4 19 -11 35
-16 35 -6 0 -10 5 -10 10 0 11 30 13 55 4z m336 -11 c-5 -10 -13 -27 -17 -38
-6 -17 -8 -18 -11 -3 -5 20 13 58 27 58 7 0 7 -6 1 -17z m-498 -40 c3 -15 1
-36 -3 -47 -7 -17 -9 -15 -10 14 0 19 -4 40 -8 45 -4 6 -40 10 -80 10 -56 0
-71 -3 -67 -13 3 -8 5 -19 5 -26 0 -9 19 -11 68 -8 45 3 64 1 57 -6 -5 -6 -38
-12 -73 -14 -60 -3 -62 -2 -62 22 0 14 -5 32 -10 40 -8 13 3 16 73 20 45 3 87
1 93 -3 7 -4 14 -20 17 -34z m103 22 c10 -16 14 -34 10 -50 -9 -35 -26 -31
-26 6 0 17 -5 39 -10 50 -16 29 6 24 26 -6z m-48 -46 c-3 -32 -3 -32 -14 14
-9 41 -9 46 3 34 9 -8 13 -28 11 -48z m-1180 -6 c3 -30 2 -31 -25 -24 -21 5
-29 14 -31 35 -3 25 -1 27 25 24 23 -2 29 -8 31 -35z m237 17 c50 -1 125 -3
168 -7 63 -4 77 -9 77 -22 0 -9 -5 -22 -12 -29 -13 -13 -118 -16 -217 -6 -49
6 -61 10 -61 24 0 19 -27 30 -77 30 -26 0 -33 -4 -33 -20 0 -16 -7 -20 -35
-20 -33 0 -35 2 -35 31 l0 32 68 -7 c37 -3 108 -6 157 -6z m424 7 c-2 -1 -13
-9 -24 -17 -19 -14 -19 -14 -6 3 7 9 18 17 24 17 6 0 8 -1 6 -3z m3228 -19
l10 -23 -123 3 c-119 3 -124 4 -114 23 10 17 22 19 114 19 97 0 103 -1 113
-22z m-3203 -14 c8 -22 8 -26 -3 -19 -15 9 -25 -15 -12 -28 9 -9 14 -8 21 3 5
8 10 10 10 5 0 -15 -21 -35 -37 -35 -7 0 -19 11 -25 25 -9 21 -8 28 7 45 22
24 31 25 39 4z m-50 -94 c4 -8 0 -6 -8 4 -9 11 -15 36 -15 55 l2 36 6 -40 c4
-22 10 -47 15 -55z m1356 -65 c55 -80 109 -149 120 -155 27 -14 62 -12 87 5
19 14 22 12 46 -23 30 -44 82 -104 71 -82 -4 8 -24 40 -45 71 l-38 56 29 28
28 27 188 -192 188 -191 -3 -102 c-1 -56 -4 -103 -5 -105 -2 -1 -40 54 -86
123 -81 123 -117 168 -86 108 37 -73 100 -246 117 -326 28 -129 39 -301 30
-475 -4 -83 -10 -154 -12 -156 -2 -2 -26 -6 -53 -10 l-48 -6 5 29 c4 16 9 71
13 123 5 68 12 100 26 119 19 25 19 33 8 125 -16 130 -26 167 -51 190 -19 17
-43 19 -258 24 l-236 5 -3 30 c-2 17 -7 35 -12 40 -4 6 -10 51 -14 100 -19
252 -110 495 -246 656 l-38 45 81 32 c45 17 85 31 89 32 4 0 52 -65 108 -145z
m-1307 48 c-7 -2 -19 -2 -25 0 -7 3 -2 5 12 5 14 0 19 -2 13 -5z m2379 -18
c134 -75 288 -480 288 -759 l0 -71 -144 3 c-144 4 -145 4 -170 -21 -26 -26
-26 -27 -26 -197 0 -161 -13 -304 -30 -323 -4 -5 -51 -14 -103 -21 l-95 -12
-9 135 c-4 75 -8 269 -8 431 0 278 1 300 23 380 26 94 76 196 123 250 l31 35
16 -25 c65 -95 84 -95 100 -1 12 66 2 127 -29 179 -30 51 -29 52 33 17z
m-1544 -25 c81 -58 159 -182 195 -310 31 -107 39 -214 35 -432 -4 -210 -15
-289 -29 -223 -4 17 -7 86 -8 155 -1 133 -19 278 -47 378 -22 80 -29 74 -9 -9
15 -66 19 -155 9 -206 -5 -26 -13 -15 -80 115 -89 172 -135 242 -200 303 -64
59 -95 79 -156 99 l-51 16 51 37 c156 115 216 131 290 77z m1953 -176 c23 -27
47 -105 60 -199 12 -85 5 -306 -11 -334 -9 -17 -11 -9 -30 147 -17 135 -64
303 -108 387 l-39 74 56 -29 c31 -15 63 -36 72 -46z m-3165 -9 c-21 -33 -20
-58 4 -80 20 -18 29 -8 10 11 -20 20 13 32 73 27 56 -5 57 -6 58 -37 0 -23 2
-26 8 -13 4 10 10 18 14 18 4 0 30 -23 57 -51 46 -48 48 -51 28 -61 -15 -8
-27 -8 -44 0 -20 9 -27 6 -54 -29 -31 -39 -51 -47 -84 -34 -14 5 -12 11 11 38
l26 31 -64 3 c-75 3 -89 15 -89 80 0 44 10 73 38 105 22 25 27 21 8 -8z m109
5 c18 -7 19 -8 3 -15 -21 -8 -48 0 -48 15 0 12 17 12 45 0z m126 -9 c13 -10
32 -34 43 -52 l19 -34 -30 34 c-19 22 -34 32 -42 27 -9 -6 -8 -11 6 -22 10 -7
14 -14 9 -14 -4 0 -26 14 -48 32 -36 28 -38 33 -22 39 30 12 40 10 65 -10z
m77 -119 c2 -7 -6 -12 -17 -12 -21 0 -27 11 -14 24 9 9 26 2 31 -12z m-229
-151 c9 -6 10 -10 2 -16 -15 -8 -41 1 -41 15 0 12 20 13 39 1z m3111 -322 c0
-30 0 -30 -52 -27 -47 3 -52 6 -59 30 -4 15 -6 28 -4 30 2 2 28 1 59 0 55 -4
56 -5 56 -33z m-1510 6 c0 -27 -15 -31 -127 -38 -63 -3 -63 -3 -63 24 0 32 11
35 123 38 65 1 67 0 67 -24z m-203 -37 c-3 -7 -5 -2 -5 12 0 14 2 19 5 13 2
-7 2 -19 0 -25z m717 -33 c16 -17 22 -40 35 -155 9 -84 2 -116 -31 -130 -28
-11 -479 -33 -502 -24 -15 6 -16 18 -10 108 4 55 10 124 13 151 l6 50 50 6
c28 3 134 7 237 7 156 2 189 -1 202 -13z m840 5 c89 -14 100 -29 92 -120 -4
-41 -11 -92 -17 -112 -17 -65 -25 -68 -170 -68 -169 0 -164 -5 -172 165 -4 70
-4 131 -1 136 7 12 194 11 268 -1z m145 -42 c0 -24 -3 -36 -6 -28 -21 65 -22
70 -7 70 10 0 14 -12 13 -42z m-291 -303 c56 -4 102 -9 102 -12 0 -16 -43
-169 -49 -176 -5 -5 -36 1 -69 12 -34 12 -82 21 -108 21 -43 0 -46 2 -41 23 3
12 9 54 13 94 6 70 7 72 28 58 11 -7 67 -16 124 -20z m-693 -86 c-11 -139 -13
-143 -71 -151 -178 -26 -363 -49 -451 -54 l-102 -7 33 104 c18 57 37 120 42
139 l10 35 103 3 102 3 -21 -23 c-25 -27 -65 -110 -75 -156 -6 -31 -5 -33 12
-24 25 14 80 74 137 149 l47 62 82 4 c45 1 99 4 121 5 l38 2 -7 -91z m720
-146 c93 -30 145 -61 173 -100 24 -34 47 -113 35 -123 -4 -5 -62 -28 -128 -53
-66 -25 -128 -48 -137 -52 -17 -7 -17 -5 -3 29 32 76 11 207 -45 284 l-30 42
27 0 c16 0 64 -12 108 -27z"/>
<path d="M2995 4458 c35 -19 67 -51 96 -97 16 -25 29 -40 29 -35 0 39 -99 145
-135 144 -5 0 -1 -6 10 -12z"/>
<path d="M2988 3690 c-20 -11 -47 -34 -59 -51 -25 -36 -22 -36 47 -8 33 13 89
5 79 -11 -3 -6 -14 -10 -24 -10 -11 0 -29 -9 -42 -20 -23 -19 -22 -19 27 2 42
17 62 19 108 14 54 -7 96 -31 96 -56 0 -5 -11 2 -25 15 -43 44 -166 34 -217
-17 -16 -16 -15 -17 20 -18 20 -1 62 -2 92 -3 52 -2 55 -1 52 21 -4 28 15 29
44 1 26 -24 22 -52 -9 -67 -21 -10 -21 -11 4 -11 16 -1 37 10 52 25 l25 25 7
-58 c3 -32 9 -78 13 -103 l7 -45 3 55 c4 67 -14 177 -34 208 -13 19 -13 22 0
22 20 0 41 39 29 51 -11 11 -205 59 -236 59 -12 -1 -39 -10 -59 -20z"/>
<path d="M2571 3597 c-19 -24 -23 -72 -11 -131 10 -47 17 -61 43 -77 44 -26
48 -24 41 19 -3 23 0 50 9 72 17 39 9 70 -25 108 -25 25 -41 28 -57 9z m59
-52 c10 -12 8 -20 -9 -41 -14 -17 -21 -41 -21 -68 0 -30 -3 -37 -10 -26 -13
21 -12 94 2 125 13 29 21 31 38 10z"/>
<path d="M1870 3226 c0 -6 167 -60 218 -71 18 -4 32 -3 32 3 0 5 -48 22 -107
36 -60 15 -116 29 -125 32 -10 3 -18 3 -18 0z"/>
<path d="M2111 3110 c-12 -22 -27 -40 -33 -40 -5 0 -57 9 -115 21 -58 11 -107
19 -109 16 -6 -6 128 -36 203 -46 51 -7 52 -7 64 21 6 16 16 31 22 35 5 3 8 2
5 -3 -2 -5 -13 -27 -23 -49 -9 -22 -27 -51 -39 -65 -14 -16 -15 -20 -3 -11 11
9 17 9 17 3 0 -6 -12 -18 -27 -26 -23 -13 -25 -15 -8 -15 22 0 65 31 65 48 0
6 -5 11 -11 11 -5 0 -7 5 -4 11 4 6 10 8 13 5 3 -3 13 1 23 10 20 18 37 1 20
-20 -14 -17 -2 -29 16 -15 18 16 16 38 -7 77 -23 37 -24 42 -10 42 6 0 10 -6
10 -12 0 -7 9 -28 21 -47 15 -24 23 -31 31 -23 8 8 4 21 -16 46 -14 19 -25 40
-24 47 2 7 -11 14 -27 16 -27 3 -34 -1 -54 -37z"/>
<path d="M2230 3095 c13 -14 26 -25 28 -25 3 0 -5 11 -18 25 -13 14 -26 25
-28 25 -3 0 5 -11 18 -25z"/>
<path d="M2235 2982 c-25 -13 -27 -17 -11 -20 10 -2 25 3 34 12 23 23 12 27
-23 8z"/>
<path d="M1938 2953 c7 -3 16 -2 19 1 4 3 -2 6 -13 5 -11 0 -14 -3 -6 -6z"/>
<path d="M2111 2934 c-17 -14 -36 -35 -42 -45 -9 -18 -5 -19 55 -19 l65 0 -15
28 c-7 15 -14 32 -14 39 0 24 -19 23 -49 -3z"/>
<path d="M3152 2660 c-23 -16 -46 -39 -53 -52 -10 -19 -6 -17 27 9 40 32 81
73 72 73 -3 0 -23 -13 -46 -30z"/>
<path d="M3153 3037 c10 -8 15 -21 11 -30 -8 -23 32 -44 99 -52 57 -7 57 -7
57 19 0 14 5 26 12 26 6 0 9 3 5 6 -3 3 -40 10 -83 15 -42 6 -87 14 -98 20
-19 9 -20 9 -3 -4z"/>
<path d="M1412 3003 c-27 -4 -33 -8 -30 -26 2 -17 11 -23 36 -25 30 -3 32 -1
32 27 0 17 -1 30 -2 29 -2 0 -18 -3 -36 -5z"/>
<path d="M748 3003 c7 -3 16 -2 19 1 4 3 -2 6 -13 5 -11 0 -14 -3 -6 -6z"/>
<path d="M708 2993 c7 -3 16 -2 19 1 4 3 -2 6 -13 5 -11 0 -14 -3 -6 -6z"/>
<path d="M4360 2970 c0 -5 9 -10 19 -10 11 0 26 -3 35 -6 11 -4 16 -1 16 10 0
12 -10 16 -35 16 -19 0 -35 -4 -35 -10z"/>
<path d="M4570 2961 c0 -11 17 -23 63 -44 21 -10 36 -13 33 -8 -9 14 -96 61
-96 52z"/>
<path d="M3880 2971 c0 -18 6 -21 51 -21 43 0 50 3 47 18 -2 13 -15 18 -51 20
-42 3 -47 1 -47 -17z"/>
<path d="M3889 2779 c-59 -63 -29 -163 53 -176 47 -7 84 15 104 64 43 102 -83
191 -157 112z m115 -31 c31 -45 10 -98 -38 -98 -30 0 -49 23 -49 60 0 58 56
82 87 38z"/>
<path d="M3952 2728 c-17 -17 -15 -48 3 -55 20 -7 23 -3 31 35 7 34 -10 44
-34 20z"/>
<path d="M4470 2772 c-16 -13 -24 -32 -27 -68 -5 -43 -2 -54 22 -82 20 -24 35
-32 60 -32 46 0 85 46 85 102 0 77 -84 125 -140 80z m98 -34 c19 -19 14 -33
-6 -15 -10 10 -25 17 -32 17 -9 0 -8 -5 5 -14 18 -13 18 -14 -3 -36 -19 -20
-22 -21 -28 -7 -3 10 -4 24 0 32 8 21 -11 19 -23 -2 -6 -10 -11 -13 -11 -6 -1
35 71 58 98 31z m11 -71 c-10 -34 -24 -47 -55 -47 -25 0 -58 34 -51 52 4 9 6
7 6 -4 2 -46 81 -41 81 6 0 13 6 23 14 23 10 0 12 -7 5 -30z"/>
<path d="M3241 1408 c0 -66 3 -108 9 -108 12 0 12 92 0 165 -6 42 -8 33 -9
-57z"/>
<path d="M1825 2240 c10 -11 20 -20 23 -20 3 0 -3 9 -13 20 -10 11 -20 20 -23
20 -3 0 3 -9 13 -20z"/>
<path d="M1881 2195 c4 -5 30 -41 58 -79 57 -76 114 -182 143 -266 10 -30 17
-41 14 -25 -9 61 -49 147 -106 232 -46 69 -136 184 -109 138z"/>
<path d="M2633 1464 c-8 -21 3 -124 15 -136 5 -5 44 -8 88 -6 l79 3 3 54 c6
100 4 101 -94 101 -68 0 -86 -3 -91 -16z m151 -35 c15 -74 12 -79 -49 -79
l-55 0 0 50 c0 38 4 50 15 50 11 0 15 -11 15 -41 0 -39 1 -40 33 -37 36 3 44
21 11 26 -25 4 -40 42 -21 54 26 16 45 8 51 -23z"/>
<path d="M2502 1364 c-27 -22 -60 -64 -49 -64 1 0 23 20 47 45 50 51 51 57 2
19z"/>
<path d="M3620 1479 c0 -9 64 -126 76 -138 4 -4 64 126 64 140 0 5 -31 9 -70
9 -44 0 -70 -4 -70 -11z m110 -14 c0 -11 -24 -55 -30 -55 -6 0 -30 44 -30 55
0 3 14 5 30 5 17 0 30 -2 30 -5z"/>
<path d="M4817 2454 c-79 -21 -293 -35 -654 -43 -189 -4 -345 -10 -348 -13 -4
-3 42 -9 102 -13 119 -9 895 1 930 11 17 5 43 47 43 70 0 6 -21 3 -73 -12z"/>
<path d="M1235 2289 c-44 -5 -89 -10 -100 -13 -32 -7 185 5 235 14 l45 7 -50
0 c-27 0 -86 -3 -130 -8z"/>
<path d="M330 2135 l-55 -24 105 0 c125 -1 150 9 88 32 -55 22 -71 21 -138 -8z"/>
<path d="M4033 1840 c0 -25 2 -35 4 -22 2 12 2 32 0 45 -2 12 -4 2 -4 -23z"/>
</g>
</svg>